<svg xmlns="http://www.w3.org/2000/svg" width="400" height="400" viewBox="0 0 400 400">
  <g id="Group_1" data-name="Group 1" transform="translate(-14 -170)">
    <circle id="Ellipse_1" data-name="Ellipse 1" cx="200" cy="200" r="200" transform="translate(14 170)" fill="#5264f5"/>
    <circle id="Ellipse_3" data-name="Ellipse 3" cx="185" cy="185" r="185" transform="translate(29 185)" fill="#fff"/>
    <circle id="Ellipse_2" data-name="Ellipse 2" cx="50" cy="50" r="50" transform="translate(164 320)" fill="#aaf2e5"/>
    <line id="Line_1" data-name="Line 1" y1="371" transform="translate(214 184.5)" fill="none" stroke="#363c49" stroke-width="1"/>
    <line id="Line_2" data-name="Line 2" y1="371" transform="translate(400 370) rotate(90)" fill="none" stroke="#363c49" stroke-width="1"/>
    <line id="Line_3" data-name="Line 3" y1="371" transform="translate(306.75 209.352) rotate(30)" fill="none" stroke="#363c49" stroke-width="1"/>
    <line id="Line_4" data-name="Line 4" y1="371" transform="translate(374.648 277.25) rotate(60)" fill="none" stroke="#363c49" stroke-width="1"/>
    <line id="Line_5" data-name="Line 5" y1="371" transform="translate(374.648 462.75) rotate(120)" fill="none" stroke="#363c49" stroke-width="1"/>
    <line id="Line_6" data-name="Line 6" y1="371" transform="translate(306.75 530.648) rotate(150)" fill="none" stroke="#363c49" stroke-width="1"/>
    <circle id="Ellipse_4" data-name="Ellipse 4" cx="20" cy="20" r="20" transform="translate(79 377)" fill="#fff"/>
    <circle id="Ellipse_5" data-name="Ellipse 5" cx="20" cy="20" r="20" transform="translate(194 350)" fill="#ddb6f4"/>
    <text id="_20" data-name="$20" transform="matrix(0.259, -0.966, 0.966, 0.259, 245.875, 297.618)" fill="#00db5d" font-size="34" font-family="Montserrat-Regular, Montserrat" letter-spacing="0.18em"><tspan x="0" y="0">$20</tspan></text>
    <text id="_140" data-name="$140" transform="translate(278.043 323.759) rotate(-45)" fill="#00db5d" font-size="34" font-family="Montserrat-Regular, Montserrat" letter-spacing="0.18em"><tspan x="0" y="0">$140</tspan></text>
    <text id="_80" data-name="$80" transform="matrix(0.966, -0.259, 0.259, 0.966, 292.981, 361.307)" fill="#00db5d" font-size="34" font-family="Montserrat-Regular, Montserrat" letter-spacing="0.18em"><tspan x="0" y="0">$80</tspan></text>
    <text id="_50" data-name="$50" transform="matrix(0.966, 0.259, -0.259, 0.966, 286.329, 401.876)" fill="#00db5d" font-size="34" font-family="Montserrat-Regular, Montserrat" letter-spacing="0.18em"><tspan x="0" y="0">$50</tspan></text>
    <text id="_120" data-name="$120" transform="translate(260.851 433.365) rotate(45)" fill="#00db5d" font-size="34" font-family="Montserrat-Regular, Montserrat" letter-spacing="0.18em"><tspan x="0" y="0">$120</tspan></text>
    <text id="_60" data-name="$60" transform="matrix(0.259, 0.966, -0.966, 0.259, 222.305, 448.892)" fill="#00db5d" font-size="34" font-family="Montserrat-Regular, Montserrat" letter-spacing="0.18em"><tspan x="0" y="0">$60</tspan></text>
    <text id="_75" data-name="$75" transform="matrix(-0.259, 0.966, -0.966, -0.259, 182.124, 442.68)" fill="#00db5d" font-size="34" font-family="Montserrat-Regular, Montserrat" letter-spacing="0.18em"><tspan x="0" y="0">$75</tspan></text>
    <text id="_110" data-name="$110" transform="translate(149.79 416.395) rotate(135)" fill="#00db5d" font-size="34" font-family="Montserrat-Regular, Montserrat" letter-spacing="0.18em"><tspan x="0" y="0">$110</tspan></text>
    <text id="_200" data-name="$200" transform="matrix(-0.966, 0.259, -0.259, -0.966, 135.558, 378.693)" fill="#00db5d" font-size="34" font-family="Montserrat-Regular, Montserrat" letter-spacing="0.18em"><tspan x="0" y="0">$200</tspan></text>
    <text id="_40" data-name="$40" transform="matrix(-0.966, -0.259, 0.259, -0.966, 141.77, 339.124)" fill="#00db5d" font-size="34" font-family="Montserrat-Regular, Montserrat" letter-spacing="0.18em"><tspan x="0" y="0">$40</tspan></text>
    <text id="_100" data-name="$100" transform="matrix(-0.259, -0.966, 0.966, -0.259, 205.307, 291.406)" fill="#00db5d" font-size="34" font-family="Montserrat-Regular, Montserrat" letter-spacing="0.18em"><tspan x="0" y="0">$100</tspan></text>
    <text id="_10" data-name="$10" transform="translate(166.927 305.91) rotate(-135)" fill="#00db5d" font-size="34" font-family="Montserrat-Regular, Montserrat" letter-spacing="0.18em"><tspan x="0" y="0">$10</tspan></text>
    <g id="Ellipse_6" data-name="Ellipse 6" transform="translate(343 227)" fill="#fff" stroke="#ffd62f" stroke-width="2">
      <circle cx="6" cy="6" r="6" stroke="none"/>
      <circle cx="6" cy="6" r="5" fill="none"/>
    </g>
    <g id="Ellipse_7" data-name="Ellipse 7" transform="translate(393 312)" fill="#fff" stroke="#ffd62f" stroke-width="2">
      <circle cx="6" cy="6" r="6" stroke="none"/>
      <circle cx="6" cy="6" r="5" fill="none"/>
    </g>
    <g id="Ellipse_8" data-name="Ellipse 8" transform="translate(394 413)" fill="#fff" stroke="#ffd62f" stroke-width="2">
      <circle cx="6" cy="6" r="6" stroke="none"/>
      <circle cx="6" cy="6" r="5" fill="none"/>
    </g>
    <g id="Ellipse_9" data-name="Ellipse 9" transform="translate(345 499)" fill="#fff" stroke="#ffd62f" stroke-width="2">
      <circle cx="6" cy="6" r="6" stroke="none"/>
      <circle cx="6" cy="6" r="5" fill="none"/>
    </g>
    <g id="Ellipse_10" data-name="Ellipse 10" transform="translate(257 550)" fill="#fff" stroke="#ffd62f" stroke-width="2">
      <circle cx="6" cy="6" r="6" stroke="none"/>
      <circle cx="6" cy="6" r="5" fill="none"/>
    </g>
    <g id="Ellipse_12" data-name="Ellipse 12" transform="translate(158 550)" fill="#fff" stroke="#ffd62f" stroke-width="2">
      <circle cx="6" cy="6" r="6" stroke="none"/>
      <circle cx="6" cy="6" r="5" fill="none"/>
    </g>
    <g id="Ellipse_11" data-name="Ellipse 11" transform="translate(22 414)" fill="#fff" stroke="#ffd62f" stroke-width="2">
      <circle cx="6" cy="6" r="6" stroke="none"/>
      <circle cx="6" cy="6" r="5" fill="none"/>
    </g>
    <g id="Ellipse_13" data-name="Ellipse 13" transform="translate(70 498)" fill="#fff" stroke="#ffd62f" stroke-width="2">
      <circle cx="6" cy="6" r="6" stroke="none"/>
      <circle cx="6" cy="6" r="5" fill="none"/>
    </g>
    <g id="Ellipse_14" data-name="Ellipse 14" transform="translate(23 312)" fill="#fff" stroke="#ffd62f" stroke-width="2">
      <circle cx="6" cy="6" r="6" stroke="none"/>
      <circle cx="6" cy="6" r="5" fill="none"/>
    </g>
    <g id="Ellipse_15" data-name="Ellipse 15" transform="translate(73 227)" fill="#fff" stroke="#ffd62f" stroke-width="2">
      <circle cx="6" cy="6" r="6" stroke="none"/>
      <circle cx="6" cy="6" r="5" fill="none"/>
    </g>
    <g id="Ellipse_16" data-name="Ellipse 16" transform="translate(158 178)" fill="#fff" stroke="#ffd62f" stroke-width="2">
      <circle cx="6" cy="6" r="6" stroke="none"/>
      <circle cx="6" cy="6" r="5" fill="none"/>
    </g>
    <g id="Ellipse_17" data-name="Ellipse 17" transform="translate(257 178)" fill="#fff" stroke="#ffd62f" stroke-width="2">
      <circle cx="6" cy="6" r="6" stroke="none"/>
      <circle cx="6" cy="6" r="5" fill="none"/>
    </g>
  </g>
</svg>
